<svg width="100" height="100" viewBox="0 0 100 100" fill="none" xmlns="http://www.w3.org/2000/svg">
<circle cx="50" cy="50" r="50" fill="white"/>
<path d="M58.5 58.7681C58.5 56.365 59.8643 54.1671 62.0233 53.0925L67 50.6154L52.125 21H47.875L33 50.6154L37.9767 53.0925C40.1358 54.1671 41.5 56.365 41.5 58.7681V59.0769H37.25V76H62.75V59.0769H58.5V58.7681ZM39.8765 49.3081L38.7014 48.7242L47.875 30.46V46.3846H52.125V30.46L61.2986 48.7221L60.1235 49.306C56.5004 51.1104 54.25 54.7362 54.25 58.7681V59.0769H45.75V58.7681C45.75 54.7362 43.4996 51.1104 39.8765 49.3081ZM58.5 71.7692H41.5V63.3077H58.5V71.7692Z" fill="#003476"/>
</svg>
