<svg width="100" height="100" viewBox="0 0 100 100" fill="none" xmlns="http://www.w3.org/2000/svg">
<circle cx="50" cy="50" r="50" fill="white"/>
<path d="M50.4959 65.7127C50.2266 65.7126 49.9683 65.6056 49.7779 65.4151L48.9371 64.5743C48.6548 64.2904 48.319 64.0653 47.9491 63.9121C47.5792 63.7588 47.1826 63.6805 46.7822 63.6817H45.4184C44.6105 63.6817 43.8356 63.3607 43.2642 62.7894C42.6929 62.2181 42.3719 61.4432 42.3719 60.6352V46.4183C42.3719 46.149 42.4789 45.8907 42.6694 45.7003C42.8598 45.5098 43.1181 45.4028 43.3874 45.4028H46.4339V47.4338H44.4029V60.6352C44.4029 60.9045 44.5099 61.1628 44.7004 61.3533C44.8908 61.5437 45.1491 61.6507 45.4184 61.6507H46.7822C47.4494 61.649 48.1103 61.7796 48.7266 62.035C49.343 62.2903 49.9026 62.6654 50.373 63.1384L50.4959 63.2613L50.6188 63.1384C51.0892 62.6654 51.6488 62.2903 52.2652 62.035C52.8815 61.7796 53.5424 61.649 54.2095 61.6507H55.5734C55.8427 61.6507 56.101 61.5437 56.2914 61.3533C56.4819 61.1628 56.5888 60.9045 56.5888 60.6352V47.4338H48.4649V45.4028H57.6043C57.8737 45.4028 58.132 45.5098 58.3224 45.7003C58.5128 45.8907 58.6198 46.149 58.6198 46.4183V60.6352C58.6198 61.4432 58.2989 62.2181 57.7275 62.7894C57.1562 63.3607 56.3813 63.6817 55.5734 63.6817H54.2095C53.8092 63.6805 53.4126 63.7588 53.0427 63.9121C52.6728 64.0653 52.3369 64.2904 52.0547 64.5743L51.2138 65.4151C51.0234 65.6056 50.7652 65.7126 50.4959 65.7127Z" fill="#003476"/>
<path d="M53.5423 30.1704H47.4493C47.18 30.1704 46.9217 30.0635 46.7313 29.873C46.5408 29.6826 46.4338 29.4243 46.4338 29.1549V28.4766C45.8064 27.4564 45.4564 26.29 45.4183 25.093C45.4183 23.8744 45.9129 21.031 50.4958 21.031C55.0787 21.031 55.5733 23.8744 55.5733 25.093C55.5352 26.29 55.1852 27.4564 54.5578 28.4766V29.1549C54.5578 29.4243 54.4508 29.6826 54.2603 29.873C54.0699 30.0635 53.8116 30.1704 53.5423 30.1704ZM48.5004 28.1395H52.5044C52.5001 27.9914 52.5293 27.8443 52.5898 27.709C52.6503 27.5738 52.7405 27.454 52.8538 27.3585C53.279 26.6773 53.5165 25.8957 53.5423 25.093C53.5423 24.5375 53.5423 23.062 50.4958 23.062C47.4493 23.062 47.4493 24.5375 47.4493 25.093C47.4751 25.8957 47.7126 26.6773 48.1378 27.3585C48.2513 27.4546 48.3425 27.5742 48.4051 27.7091C48.4677 27.8439 48.5002 27.9908 48.5004 28.1395Z" fill="#003476"/>
<path d="M51.5113 19H49.4803V22.0465H51.5113V19Z" fill="#003476"/>
<path d="M55.5733 47.4338V45.4028C55.9552 45.4025 56.3293 45.2944 56.6527 45.0911C56.976 44.8878 57.2354 44.5974 57.4012 44.2533C56.6664 44.1642 55.9841 43.827 55.467 43.2974C54.95 42.7678 54.6292 42.0775 54.5578 41.3408C54.5578 38.0324 58.2197 34.9828 60.4903 33.4098C59.9948 33.2819 59.485 33.217 58.9732 33.2169H55.9937L56.2913 33.5144C56.4183 33.6415 56.5093 33.8001 56.555 33.9738C56.6007 34.1476 56.5995 34.3304 56.5515 34.5035C56.5035 34.6767 56.4104 34.834 56.2817 34.9594C56.153 35.0848 55.9934 35.1739 55.8191 35.2174C54.6627 35.5008 53.6273 36.1463 52.8637 37.0597C52.1001 37.9731 51.6483 39.1066 51.5743 40.2949C51.5337 40.9174 51.5113 41.6028 51.5113 42.3563V46.4183H49.4803V42.3563C49.4803 41.5988 49.5027 40.8625 49.5464 40.17C49.628 38.8389 50.0583 37.5527 50.7941 36.4405C51.5298 35.3282 52.5452 34.4291 53.7383 33.8333L52.8244 32.9194C52.6824 32.7773 52.5857 32.5964 52.5465 32.3995C52.5074 32.2025 52.5275 31.9984 52.6043 31.8128C52.6812 31.6273 52.8113 31.4687 52.9783 31.3571C53.1452 31.2455 53.3415 31.186 53.5423 31.1859H58.9732C60.234 31.1873 61.4774 31.481 62.6056 32.044L63.1347 32.308C63.2992 32.3901 63.4384 32.5153 63.5373 32.6703C63.6363 32.8252 63.6913 33.0042 63.6965 33.188C63.7017 33.3718 63.6569 33.5535 63.5669 33.7139C63.4769 33.8742 63.3451 34.0071 63.1854 34.0983C61.3504 35.1463 56.5888 38.4975 56.5888 41.3408C56.5888 41.7552 57.3799 42.3563 58.6198 42.3563C58.8891 42.3563 59.1474 42.4633 59.3378 42.6538C59.5283 42.8442 59.6353 43.1025 59.6353 43.3718C59.6353 44.4491 59.2073 45.4823 58.4455 46.2441C57.6838 47.0058 56.6506 47.4338 55.5733 47.4338Z" fill="#003476"/>
<path d="M64.7127 37.2789H58.6198V35.2479H63.5845C63.3418 34.334 62.7873 34.2405 62.6533 34.2324L62.6817 32.2014C63.7358 32.2014 65.7282 33.0504 65.7282 36.2634C65.7282 36.5327 65.6212 36.791 65.4308 36.9814C65.2403 37.1719 64.982 37.2789 64.7127 37.2789Z" fill="#003476"/>
<path d="M62.6035 32.5924L60.7289 31.8105L61.655 29.5886C61.6662 29.4028 61.389 29.155 60.934 29.155H58.3364C57.8815 29.155 57.6042 29.4028 57.6042 29.5378L58.5415 31.8105L56.6669 32.5924L55.7408 30.3736C55.6301 30.1089 55.5732 29.8248 55.5732 29.5378C55.6233 28.8527 55.9415 28.215 56.4588 27.7631C56.9761 27.3112 57.6508 27.0815 58.3364 27.124H60.934C61.6196 27.0815 62.2943 27.3112 62.8116 27.7631C63.329 28.215 63.6472 28.8527 63.6972 29.5378C63.6967 29.8222 63.6405 30.1038 63.5317 30.3665L62.6035 32.5924Z" fill="#003476"/>
<path d="M60.6507 25.093H58.6198V28.1395H60.6507V25.093Z" fill="#003476"/>
<path d="M61.6665 54.5424C61.5094 54.5441 61.354 54.5094 61.2126 54.4409L59.3959 53.5269H57.6045V51.4959H59.6355C59.7926 51.4942 59.948 51.529 60.0894 51.5975L61.4664 52.286L62.9795 50.7729C63.1707 50.5843 63.4289 50.4791 63.6975 50.4804H65.3345L64.7658 48.7703C64.715 48.6178 64.7011 48.4553 64.7254 48.2963C64.7496 48.1373 64.8113 47.9864 64.9053 47.8559C64.9993 47.7254 65.1229 47.6191 65.266 47.5457C65.4091 47.4724 65.5676 47.4341 65.7285 47.4339C66.1824 47.4339 66.5226 46.4185 66.6678 45.403H64.713C64.484 45.4032 64.2617 45.326 64.0821 45.184C63.9025 45.042 63.7762 44.8434 63.7237 44.6206C63.6711 44.3978 63.6954 44.1637 63.7926 43.9564C63.8897 43.7491 64.0541 43.5807 64.259 43.4786C64.8135 43.2014 65.2045 42.1869 65.4431 41.0313L62.3885 44.0828C62.1328 44.3186 61.9642 44.6338 61.9102 44.9775C61.8562 45.3211 61.9199 45.6729 62.091 45.9757C62.1489 46.0899 62.2324 46.1892 62.3349 46.266C62.4373 46.3428 62.5561 46.3949 62.682 46.4185C62.9513 46.4185 63.2096 46.5254 63.4 46.7159C63.5905 46.9063 63.6975 47.1646 63.6975 47.4339C63.701 47.9884 63.5659 48.5349 63.3043 49.0237C63.0426 49.5125 62.6629 49.9281 62.1996 50.2326C60.9546 50.9374 59.2811 50.6388 57.0815 49.3187L58.1275 47.5781C60.2174 48.8323 61.0074 48.5733 61.1994 48.4647C61.3272 48.3857 61.4286 48.2704 61.4908 48.1336C61.0502 47.8832 60.6765 47.5304 60.4012 47.1049C59.9663 46.4122 59.7837 45.5906 59.8842 44.7788C59.9846 43.9671 60.362 43.2148 60.9526 42.6489L66.0301 37.5715C66.1726 37.4306 66.3536 37.335 66.5504 37.2968C66.7471 37.2586 66.9508 37.2795 67.1357 37.3568C67.3206 37.4341 67.4785 37.5644 67.5895 37.7313C67.7005 37.8981 67.7596 38.0941 67.7594 38.2945C67.7759 40.0301 67.463 41.753 66.8374 43.372H67.7594C68.0288 43.372 68.2871 43.479 68.4775 43.6694C68.668 43.8599 68.7749 44.1181 68.7749 44.3875C68.7749 46.2154 68.2906 48.2738 67.0151 49.0973L67.7066 51.175C67.7575 51.3276 67.7713 51.4901 67.7471 51.6491C67.7228 51.808 67.6611 51.959 67.5672 52.0895C67.4732 52.22 67.3495 52.3263 67.2064 52.3996C67.0633 52.473 66.9048 52.5113 66.744 52.5114H64.1179L62.3844 54.2449C62.194 54.4353 61.9358 54.5423 61.6665 54.5424Z" fill="#003476"/>
<path d="M65.7281 61.6506C65.5709 61.6524 65.4156 61.6176 65.2741 61.5491C64.608 61.215 61.6529 59.643 60.8517 57.5887H57.6041V55.5577H61.6661C61.9354 55.5577 62.1937 55.6647 62.3842 55.8551C62.5746 56.0456 62.6816 56.3038 62.6816 56.5732C62.6816 57.3084 64.0017 58.4295 65.2843 59.2216C65.5974 57.6819 65.7461 56.1133 65.7281 54.5422C65.7255 54.3114 65.8016 54.0865 65.9439 53.9048C66.0862 53.723 66.2862 53.5951 66.5109 53.5423C66.7357 53.4894 66.9717 53.5147 67.1801 53.6139C67.3885 53.7132 67.5569 53.8805 67.6575 54.0883C68.0556 54.8854 69.7179 55.6481 71.3285 56.1507C70.7033 55.0865 69.9469 54.105 69.0772 53.2292C68.9204 53.0721 68.8193 52.8681 68.7895 52.6482C68.7597 52.4283 68.8027 52.2046 68.912 52.0115C69.0213 51.8184 69.1908 51.6664 69.3947 51.5787C69.5985 51.4911 69.8255 51.4726 70.0409 51.5262C71.4951 51.8882 72.9709 52.1575 74.4593 52.3325C73.4949 51.5828 72.4612 50.9269 71.3722 50.3736C71.1676 50.2717 71.0035 50.1037 70.9062 49.8969C70.809 49.6901 70.7843 49.4566 70.8362 49.234C70.8881 49.0115 71.0135 48.813 71.1923 48.6706C71.371 48.5281 71.5925 48.4502 71.821 48.4492C74.1651 48.4774 76.4585 47.7668 78.376 46.4182H72.8365C72.5821 46.4176 72.3373 46.3214 72.1504 46.1488C71.9635 45.9763 71.8482 45.7398 71.8272 45.4863C71.8063 45.2328 71.8813 44.9807 72.0373 44.7798C72.1934 44.5789 72.4192 44.4439 72.67 44.4015C75.3508 43.8512 77.7491 42.3667 79.4372 40.2126L73.1605 42.3035C72.9218 42.3817 72.6627 42.3688 72.433 42.2671C72.2034 42.1654 72.0195 41.9823 71.917 41.753C71.8145 41.5238 71.8006 41.2647 71.8779 41.0257C71.9553 40.7868 72.1184 40.585 72.3359 40.4593C74.894 39.1587 76.9762 37.0836 78.2857 34.5299L74.4187 37.1082C74.2194 37.2434 73.9786 37.3033 73.7392 37.2774C73.4998 37.2514 73.2775 37.1413 73.1118 36.9666C72.9461 36.7918 72.8479 36.564 72.8347 36.3235C72.8215 36.0831 72.8941 35.8458 73.0396 35.654C73.6094 34.9203 74.0283 34.0811 74.2723 33.1847C74.5163 32.2884 74.5806 31.3526 74.4613 30.4313L69.7799 36.8604L68.1378 35.6662L74.046 27.5423C74.1495 27.4021 74.2866 27.2903 74.4448 27.2172C74.6029 27.1441 74.777 27.112 74.9508 27.1239C75.1248 27.1381 75.2922 27.197 75.4368 27.2949C75.5814 27.3927 75.6984 27.5262 75.7764 27.6824C76.5721 29.4776 76.7624 31.4828 76.3186 33.3956L79.3814 31.3534C79.5345 31.2512 79.7126 31.1926 79.8965 31.1838C80.0804 31.175 80.2632 31.2164 80.4254 31.3035C80.5876 31.3906 80.7231 31.5201 80.8173 31.6783C80.9116 31.8364 80.961 32.0172 80.9605 32.2013C80.7483 34.5946 79.7066 36.8384 78.0155 38.5451L81.6591 37.3265C81.8502 37.2619 82.0563 37.2557 82.251 37.3086C82.4456 37.3616 82.6201 37.4713 82.7522 37.6239C82.8842 37.7764 82.9678 37.9648 82.9924 38.1651C83.0169 38.3653 82.9812 38.5683 82.8899 38.7482C81.68 40.9859 79.9715 42.9154 77.8967 44.3873H80.9605C81.149 44.3873 81.3339 44.4398 81.4943 44.5389C81.6548 44.6381 81.7844 44.7799 81.8687 44.9486C81.9531 45.1173 81.9888 45.3061 81.9718 45.4939C81.9549 45.6818 81.886 45.8612 81.7729 46.012C80.0069 48.109 77.595 49.5605 74.9152 50.139C76.0923 50.8828 77.0834 51.8864 77.8124 53.0728C77.89 53.228 77.9265 53.4006 77.9184 53.5739C77.9104 53.7473 77.858 53.9157 77.7663 54.063C77.6747 54.2104 77.5468 54.3318 77.3949 54.4157C77.2429 54.4996 77.072 54.5431 76.8985 54.5422C75.4 54.5073 73.9063 54.3586 72.4303 54.0974C73.225 55.1032 73.718 56.3138 73.852 57.5887C73.852 57.7393 73.8186 57.888 73.754 58.0241C73.6895 58.1601 73.5955 58.2801 73.4788 58.3754C73.3622 58.4707 73.2258 58.5388 73.0796 58.5748C72.9334 58.6109 72.781 58.614 72.6334 58.5838C70.8986 58.2478 69.2265 57.6445 67.6768 56.7956C67.5509 58.5453 67.229 60.5661 66.442 61.3531C66.2526 61.5426 65.996 61.6495 65.7281 61.6506Z" fill="#003476"/>
<path d="M70.8056 72.8211C69.8014 72.8211 68.8197 72.5233 67.9847 71.9654C67.1497 71.4074 66.499 70.6145 66.1147 69.6867C65.7304 68.7589 65.6298 67.738 65.8257 66.753C66.0216 65.7681 66.5052 64.8634 67.2153 64.1533C67.9254 63.4432 68.8301 62.9596 69.8151 62.7637C70.8 62.5678 71.8209 62.6683 72.7487 63.0526C73.6765 63.4369 74.4695 64.0877 75.0274 64.9227C75.5853 65.7577 75.8831 66.7394 75.8831 67.7436C75.8815 69.0897 75.346 70.3803 74.3941 71.3321C73.4423 72.284 72.1517 72.8195 70.8056 72.8211ZM70.8056 64.6971C70.2031 64.6971 69.6141 64.8758 69.1131 65.2106C68.6121 65.5453 68.2216 66.0211 67.991 66.5778C67.7605 67.1344 67.7001 67.747 67.8177 68.3379C67.9352 68.9289 68.2254 69.4717 68.6514 69.8978C69.0775 70.3238 69.6203 70.614 70.2113 70.7315C70.8022 70.8491 71.4148 70.7888 71.9715 70.5582C72.5281 70.3276 73.0039 69.9371 73.3387 69.4361C73.6734 68.9351 73.8521 68.3461 73.8521 67.7436C73.8521 66.9356 73.5311 66.1607 72.9598 65.5894C72.3885 65.0181 71.6136 64.6971 70.8056 64.6971Z" fill="#003476"/>
<path d="M71.8213 59.6198H69.7903V63.6817H71.8213V59.6198Z" fill="#003476"/>
<path d="M72.8366 60.6353H68.7747V62.6662H72.8366V60.6353Z" fill="#003476"/>
<path d="M74.8677 66.7281H66.7438V68.7591H74.8677V66.7281Z" fill="#003476"/>
<path d="M68.7745 74.8521C68.6759 74.852 68.5777 74.8376 68.4831 74.8095L58.3282 71.763C58.1189 71.7003 57.9354 71.5718 57.805 71.3965C57.6746 71.2212 57.6041 71.0086 57.6041 70.7901V67.7437H59.6351V70.0346L68.4851 72.6891L70.0876 71.0877L71.5235 72.5236L69.4925 74.5546C69.3021 74.745 69.0438 74.852 68.7745 74.8521Z" fill="#003476"/>
<path d="M45.4188 47.4338C44.3415 47.4338 43.3083 47.0058 42.5466 46.2441C41.7848 45.4823 41.3568 44.4491 41.3568 43.3718C41.3568 43.1025 41.4638 42.8442 41.6543 42.6538C41.8447 42.4633 42.103 42.3563 42.3723 42.3563C43.6122 42.3563 44.4033 41.7552 44.4033 41.3408C44.4033 38.4914 39.6417 35.1463 37.8026 34.0983C37.643 34.0071 37.5111 33.8742 37.4211 33.7139C37.3311 33.5535 37.2863 33.3718 37.2915 33.188C37.2968 33.0042 37.3518 32.8252 37.4507 32.6703C37.5497 32.5153 37.6888 32.3901 37.8534 32.308L38.3835 32.044C39.5125 31.4803 40.757 31.1865 42.0189 31.1859H47.4498C47.6506 31.186 47.8469 31.2455 48.0139 31.3571C48.1808 31.4687 48.3109 31.6273 48.3878 31.8128C48.4646 31.9984 48.4847 32.2025 48.4456 32.3995C48.4064 32.5964 48.3097 32.7773 48.1677 32.9194L47.2538 33.8333C48.4469 34.4294 49.4623 35.3287 50.198 36.4411C50.9338 37.5535 51.3641 38.8398 51.4458 40.171C51.4894 40.8625 51.5118 41.5988 51.5118 42.3563V46.4183H49.4808V42.3563C49.4808 41.6028 49.4584 40.9174 49.4178 40.2989C49.3438 39.1107 48.8921 37.9772 48.1285 37.0638C47.3649 36.1504 46.3294 35.5049 45.1731 35.2215C44.9987 35.1779 44.8391 35.0889 44.7104 34.9635C44.5817 34.8381 44.4886 34.6808 44.4406 34.5076C44.3926 34.3345 44.3914 34.1517 44.4371 33.9779C44.4828 33.8041 44.5738 33.6456 44.7009 33.5185L44.9984 33.2169H42.0189C41.5071 33.217 40.9974 33.2819 40.5018 33.4098C42.7724 34.9828 46.4343 38.0324 46.4343 41.3408C46.3629 42.0775 46.0421 42.7678 45.5251 43.2974C45.008 43.827 44.3257 44.1642 43.5909 44.2533C43.7567 44.5974 44.0161 44.8878 44.3394 45.0911C44.6628 45.2944 45.0369 45.4025 45.4188 45.4028V47.4338Z" fill="#003476"/>
<path d="M42.3719 37.2789H36.2789C36.0096 37.2789 35.7513 37.1719 35.5609 36.9814C35.3704 36.791 35.2634 36.5327 35.2634 36.2634C35.2634 33.0504 37.2558 32.2014 38.3099 32.2014L38.3383 34.2324C38.2043 34.2415 37.6498 34.334 37.4071 35.2479H42.3719V37.2789Z" fill="#003476"/>
<path d="M44.3244 32.5924L42.4498 31.8105L43.376 29.5886C43.3871 29.4028 43.1099 29.155 42.655 29.155H40.0573C39.6024 29.155 39.3252 29.4028 39.3252 29.5378L40.2625 31.8105L38.3879 32.5924L37.4617 30.3736C37.3511 30.1089 37.2941 29.8248 37.2942 29.5378C37.3442 28.8527 37.6624 28.215 38.1797 27.7631C38.6971 27.3112 39.3717 27.0815 40.0573 27.124H42.655C43.3406 27.0815 44.0153 27.3112 44.5326 27.7631C45.0499 28.215 45.3681 28.8527 45.4181 29.5378C45.4177 29.8222 45.3614 30.1038 45.2526 30.3665L44.3244 32.5924Z" fill="#003476"/>
<path d="M42.3717 25.093H40.3407V28.1395H42.3717V25.093Z" fill="#003476"/>
<path d="M39.3255 54.5422C39.0562 54.5422 38.7979 54.4351 38.6075 54.2447L36.8741 52.5112H34.248C34.0872 52.5111 33.9287 52.4728 33.7856 52.3994C33.6425 52.3261 33.5188 52.2198 33.4248 52.0893C33.3308 51.9588 33.2692 51.8079 33.2449 51.6489C33.2207 51.4899 33.2345 51.3274 33.2853 51.1748L33.9769 49.0971C32.7014 48.2736 32.217 46.2152 32.217 44.3873C32.217 44.118 32.324 43.8597 32.5145 43.6692C32.7049 43.4788 32.9632 43.3718 33.2325 43.3718H34.1546C33.529 41.7528 33.2161 40.0299 33.2325 38.2943C33.2326 38.0935 33.2922 37.8972 33.4037 37.7303C33.5153 37.5633 33.6739 37.4332 33.8594 37.3563C34.045 37.2795 34.2491 37.2594 34.4461 37.2986C34.643 37.3377 34.824 37.4344 34.966 37.5764L40.0434 42.6538C40.6342 43.2196 41.0118 43.9718 41.1124 44.7835C41.213 45.5953 41.0306 46.4169 40.5959 47.1098C40.3197 47.5346 39.9462 47.8873 39.5062 48.1385C39.5697 48.2766 39.6725 48.3928 39.8018 48.4726C39.9957 48.5803 40.7878 48.8321 42.8685 47.583L43.9145 49.3236C41.7149 50.6437 40.0424 50.9413 38.7964 50.2375C38.3317 49.933 37.9507 49.5168 37.6883 49.027C37.4259 48.5372 37.2905 47.9894 37.2945 47.4338C37.2945 47.1644 37.4015 46.9061 37.5919 46.7157C37.7824 46.5253 38.0407 46.4183 38.31 46.4183C38.436 46.395 38.5549 46.3432 38.6577 46.2668C38.7605 46.1904 38.8445 46.0915 38.903 45.9775C39.0733 45.6745 39.1363 45.3229 39.0819 44.9796C39.0276 44.6363 38.859 44.3213 38.6035 44.0857L35.5489 41.0362C35.7875 42.1918 36.1785 43.2063 36.7329 43.4835C36.9351 43.587 37.0967 43.7554 37.1919 43.9616C37.2872 44.1678 37.3105 44.4 37.2582 44.621C37.2059 44.8421 37.0811 45.0392 36.9036 45.1809C36.726 45.3227 36.5061 45.4008 36.279 45.4028H34.3242C34.4674 46.4294 34.8045 47.4338 35.2635 47.4338C35.4243 47.4339 35.5828 47.4722 35.726 47.5456C35.8691 47.6189 35.9927 47.7252 36.0867 47.8557C36.1807 47.9862 36.2424 48.1371 36.2666 48.2961C36.2909 48.4551 36.277 48.6176 36.2262 48.7702L35.6575 50.4802H37.2945C37.5638 50.4803 37.8221 50.5873 38.0125 50.7778L39.5255 52.2909L40.9026 51.6024C41.0435 51.5321 41.1989 51.4956 41.3565 51.4957H43.3875V53.5267H41.5961L39.7794 54.4407C39.638 54.5092 39.4826 54.5439 39.3255 54.5422Z" fill="#003476"/>
<path d="M35.2635 61.6507C34.9942 61.6506 34.7359 61.5436 34.5455 61.3531C33.7585 60.5661 33.4366 58.5453 33.3107 56.7956C31.7622 57.6441 30.0915 58.2474 28.3581 58.5839C28.2106 58.614 28.0582 58.6109 27.9119 58.5749C27.7657 58.5388 27.6293 58.4707 27.5127 58.3754C27.3961 58.2802 27.3021 58.1602 27.2375 58.0241C27.173 57.888 27.1395 57.7393 27.1395 57.5887C27.2735 56.3139 27.7665 55.1032 28.5612 54.0974C27.0853 54.3586 25.5916 54.5073 24.0931 54.5422C23.9199 54.5423 23.7497 54.4981 23.5984 54.4139C23.4472 54.3296 23.32 54.2081 23.2289 54.0609C23.1379 53.9137 23.086 53.7456 23.0781 53.5727C23.0703 53.3997 23.1068 53.2277 23.1842 53.0728C23.9117 51.887 24.901 50.8835 26.0763 50.139C23.3966 49.5606 20.9846 48.109 19.2187 46.0121C19.1055 45.8612 19.0366 45.6818 19.0197 45.494C19.0028 45.3061 19.0385 45.1173 19.1228 44.9486C19.2071 44.78 19.3368 44.6381 19.4972 44.5389C19.6576 44.4398 19.8425 44.3873 20.0311 44.3873H23.0948C21.0219 42.9148 19.3152 40.9854 18.1067 38.7483C18.0171 38.5686 17.9828 38.3664 18.0081 38.1673C18.0333 37.9681 18.117 37.781 18.2486 37.6294C18.3802 37.4778 18.5538 37.3686 18.7474 37.3156C18.9411 37.2626 19.146 37.2682 19.3365 37.3316L22.9801 38.5502C21.2865 36.8428 20.2432 34.5969 20.0311 32.2014C20.0311 32.0175 20.0809 31.8371 20.1754 31.6794C20.2699 31.5217 20.4054 31.3926 20.5675 31.3058C20.7296 31.2191 20.9122 31.178 21.0959 31.1869C21.2795 31.1958 21.4572 31.2544 21.6102 31.3565L24.6729 33.3986C24.2292 31.4858 24.4195 29.4806 25.2152 27.6855C25.2934 27.5302 25.4101 27.3976 25.5542 27.3004C25.6983 27.2032 25.865 27.1446 26.0382 27.1302C26.2115 27.1158 26.3855 27.1462 26.5437 27.2183C26.7018 27.2905 26.8388 27.402 26.9415 27.5423L32.8507 35.6662L31.2127 36.8625L26.5302 30.4243C26.4091 31.3467 26.4723 32.284 26.7164 33.1818C26.9604 34.0796 27.3804 34.9199 27.9519 35.654C28.0958 35.8457 28.1673 36.0822 28.1536 36.3214C28.14 36.5607 28.0421 36.7875 27.8774 36.9616C27.7127 37.1357 27.4916 37.2459 27.2535 37.2728C27.0153 37.2996 26.7753 37.2413 26.5759 37.1082L22.7018 34.5258C24.013 37.0831 26.0995 39.16 28.6628 40.4594C28.8802 40.585 29.0434 40.7868 29.1207 41.0258C29.1981 41.2647 29.1841 41.5238 29.0816 41.7531C28.9791 41.9823 28.7953 42.1655 28.5656 42.2671C28.336 42.3688 28.0768 42.3817 27.8382 42.3035L21.5543 40.2126C23.2416 42.3661 25.6388 43.8506 28.3185 44.4015C28.5691 44.4439 28.7947 44.5786 28.9508 44.7792C29.1068 44.9798 29.182 45.2315 29.1615 45.4848C29.1409 45.7381 29.0262 45.9745 28.8398 46.1474C28.6535 46.3202 28.4092 46.4168 28.155 46.4183H22.6155C24.533 47.7669 26.8264 48.4775 29.1705 48.4493C29.3995 48.449 29.6218 48.5262 29.8014 48.6682C29.981 48.8102 30.1073 49.0088 30.1598 49.2316C30.2124 49.4544 30.1881 49.6885 30.0909 49.8958C29.9938 50.1031 29.8294 50.2715 29.6245 50.3736C28.5362 50.9267 27.5032 51.5823 26.5394 52.3315C28.0272 52.1576 29.5023 51.8886 30.9558 51.5262C31.1711 51.4726 31.3981 51.4911 31.6019 51.5787C31.8058 51.6664 31.9754 51.8184 32.0846 52.0115C32.1939 52.2047 32.237 52.4283 32.2071 52.6482C32.1773 52.8681 32.0763 53.0721 31.9195 53.2292C31.0504 54.1045 30.2944 55.0854 29.6691 56.1487C31.2797 55.641 32.9431 54.8824 33.3391 54.0883C33.4413 53.8834 33.6096 53.719 33.8169 53.6218C34.0242 53.5246 34.2583 53.5003 34.4811 53.5529C34.704 53.6055 34.9025 53.7318 35.0445 53.9114C35.1865 54.091 35.2637 54.3133 35.2635 54.5422C35.2451 56.1133 35.3939 57.6819 35.7073 59.2216C36.9898 58.4285 38.31 57.3084 38.31 56.5732C38.31 56.3039 38.4169 56.0456 38.6074 55.8551C38.7978 55.6647 39.0561 55.5577 39.3255 55.5577H43.3874V57.5887H40.1378C39.3366 59.638 36.3805 61.2099 35.7154 61.5491C35.5746 61.6173 35.4199 61.6521 35.2635 61.6507Z" fill="#003476"/>
<path d="M50.496 70.7902C50.2267 70.7901 49.9685 70.6831 49.7781 70.4926C47.9473 68.5897 46.3663 66.4614 45.0733 64.159C45.2902 65.2454 45.7031 66.2833 46.2919 67.2217C46.4083 67.4158 46.4565 67.6432 46.4289 67.8679C46.4013 68.0925 46.2995 68.3015 46.1395 68.4616C45.806 68.8686 45.378 69.1879 44.8929 69.3918C44.4078 69.5957 43.8802 69.678 43.3561 69.6315C42.8873 69.5522 42.4519 69.338 42.103 69.0151L40.7981 69.6681C40.6074 69.7632 40.3916 69.796 40.1813 69.7617C39.971 69.7274 39.7768 69.6279 39.6262 69.4771L38.891 68.7419C37.7184 68.6414 36.5961 68.2198 35.6475 67.5233C35.4961 67.4031 35.3821 67.2422 35.319 67.0594C35.2559 66.8766 35.2463 66.6797 35.2913 66.4916C35.3363 66.3036 35.4341 66.1323 35.5731 65.9979C35.7121 65.8636 35.8866 65.7716 36.076 65.733C36.5977 65.0507 37.0089 64.2907 37.2946 63.4807C37.451 60.4393 41.1667 59.6218 43.3876 59.6218V61.6528C43.3469 61.6528 39.3256 61.7198 39.3256 63.6838C39.3257 63.8058 39.3041 63.9268 39.2616 64.0412C38.9557 64.9102 38.5466 65.7394 38.043 66.5109C38.4558 66.6528 38.8891 66.7262 39.3256 66.7282C39.5949 66.7283 39.8531 66.8353 40.0435 67.0257L40.5411 67.5233L41.9181 66.8348C42.0375 66.7752 42.1674 66.7396 42.3005 66.7302C42.4336 66.7207 42.5673 66.7376 42.6938 66.7799C42.8204 66.8221 42.9374 66.8889 43.0381 66.9764C43.1389 67.0639 43.2214 67.1704 43.2809 67.2898C43.3094 67.3416 43.484 67.5944 43.6871 67.6279C43.8432 67.6341 43.9968 67.5872 44.1228 67.4949C43.4688 66.2286 42.5914 64.0676 43.3561 62.717C43.5668 62.3652 43.8714 62.079 44.2357 61.8907C44.6001 61.7023 45.0096 61.6193 45.4185 61.6507C45.6073 61.6506 45.7923 61.7031 45.9528 61.8023C46.1133 61.9015 46.2431 62.0435 46.3274 62.2123C47.4745 64.3971 48.8735 66.44 50.496 68.2992C52.1167 66.4397 53.5141 64.3968 54.6595 62.2123C54.7443 62.0427 54.8748 61.9002 55.0363 61.801C55.1978 61.7018 55.3839 61.6497 55.5735 61.6507C55.983 61.6185 56.3935 61.7012 56.7586 61.8896C57.1237 62.078 57.429 62.3645 57.64 62.717C58.4047 64.0666 57.5283 66.2265 56.8733 67.4898C57.001 67.5827 57.1563 67.6296 57.314 67.6228C57.51 67.5914 57.6938 67.3182 57.7111 67.2857C57.7707 67.1663 57.8532 67.0598 57.9539 66.9723C58.0546 66.8849 58.1716 66.8181 58.2982 66.7758C58.4248 66.7336 58.5584 66.7167 58.6915 66.7261C58.8246 66.7355 58.9545 66.7711 59.0739 66.8308L60.4509 67.5193L60.9485 67.0217C61.1395 66.8327 61.3977 66.7272 61.6664 66.7282C62.102 66.7251 62.5342 66.651 62.946 66.5089C62.4424 65.7374 62.0332 64.9082 61.7274 64.0392C61.686 63.9246 61.6653 63.8035 61.6664 63.6817C61.6664 61.7381 57.6451 61.6507 57.6045 61.6507V59.6198C59.8193 59.6198 63.5349 60.4393 63.6923 63.4786C63.9788 64.2886 64.39 65.0488 64.9109 65.732C65.1004 65.7701 65.275 65.8614 65.4144 65.9953C65.5537 66.1291 65.652 66.3 65.6976 66.4878C65.7433 66.6755 65.7344 66.8724 65.672 67.0553C65.6096 67.2382 65.4964 67.3995 65.3456 67.5203C64.3969 68.2168 63.2747 68.6384 62.1021 68.7389L61.3669 69.4741C61.2163 69.6248 61.0221 69.7244 60.8117 69.7587C60.6014 69.7929 60.3856 69.7602 60.195 69.665L58.8901 69.012C58.541 69.3348 58.1056 69.5489 57.637 69.6284C57.1128 69.6751 56.5852 69.5929 56.1 69.389C55.6149 69.1851 55.187 68.8657 54.8535 68.4586C54.6936 68.2985 54.5917 68.0895 54.5641 67.8648C54.5365 67.6402 54.5848 67.4128 54.7012 67.2187C55.2859 66.2852 55.6955 65.2528 55.9096 64.1722C54.6178 66.4695 53.0392 68.5933 51.2119 70.4926C51.022 70.6826 50.7646 70.7896 50.496 70.7902Z" fill="#003476"/>
<path d="M64.0215 68.8132L63.3795 70.739L69.469 72.7689L70.111 70.8431L64.0215 68.8132Z" fill="#003476"/>
<path d="M32.5084 74.8095L31.9255 72.8638L41.3564 70.0346V67.7437H43.3874V70.7901C43.3874 71.0086 43.317 71.2212 43.1865 71.3965C43.0561 71.5718 42.8726 71.7003 42.6634 71.763L32.5084 74.8095Z" fill="#003476"/>
<path d="M36.9745 68.8101L30.8817 70.8431L31.5243 72.7687L37.617 70.7357L36.9745 68.8101Z" fill="#003476"/>
<path d="M28.0339 64.2165L26.2457 65.1794L33.3543 78.381L35.1425 77.4181L28.0339 64.2165Z" fill="#003476"/>
<path d="M27.1395 65.7128H24.093C23.9259 65.7128 23.7613 65.6716 23.6139 65.5928C23.4666 65.5139 23.3409 65.3999 23.2481 65.2609L21.2172 62.2144L22.9069 61.0872L24.6363 63.6818H26.5119L27.0583 62.5881L26.1768 59.9407L28.1063 59.299L29.1218 62.3454C29.2072 62.6006 29.1878 62.8793 29.0679 63.1202L28.0524 65.1512C27.9678 65.3207 27.8374 65.463 27.6761 65.5623C27.5148 65.6615 27.3289 65.7136 27.1395 65.7128Z" fill="#003476"/>
<path d="M50.4956 82.976C50.3284 82.976 50.1639 82.9348 50.0165 82.856C49.8691 82.7771 49.7434 82.6631 49.6507 82.5241L47.6197 79.4776C47.5087 79.3106 47.4494 79.1146 47.4491 78.914C47.4491 76.8434 48.4311 68.9622 48.4727 68.6332L50.4875 68.885C50.4773 68.9622 49.5684 76.2646 49.4862 78.6155L50.4956 80.1326L51.505 78.6185C51.4227 76.2666 50.5139 68.9652 50.5037 68.8881L52.5184 68.6362C52.5601 68.9673 53.5421 76.8434 53.5421 78.914C53.5417 79.1146 53.4824 79.3106 53.3715 79.4776L51.3405 82.5241C51.2477 82.6631 51.1221 82.7771 50.9747 82.856C50.8273 82.9348 50.6627 82.976 50.4956 82.976Z" fill="#003476"/>
<path d="M54.5577 81.9606C54.3885 81.9606 54.222 81.9183 54.0733 81.8376C53.9245 81.757 53.7983 81.6404 53.7061 81.4985C53.6139 81.3567 53.5586 81.194 53.5452 81.0254C53.5318 80.8567 53.5608 80.6874 53.6295 80.5328C53.9711 79.7889 54.2513 79.0182 54.4673 78.2286L53.8397 77.6011C53.7262 77.4873 53.6413 77.3483 53.592 77.1954C53.5427 77.0425 53.5304 76.8801 53.5561 76.7215C53.5817 76.5629 53.6447 76.4126 53.7397 76.2831C53.8347 76.1535 53.9592 76.0484 54.1027 75.9763C54.1027 75.9661 54.1027 75.9539 54.1027 75.9417C53.1791 74.6782 52.0856 73.5481 50.8531 72.5835L52.1631 71.0298C54.7983 73.2537 56.1347 74.8816 56.1347 75.8686C56.1405 76.2054 56.0816 76.5401 55.9611 76.8547L56.2881 77.1817C56.3957 77.2893 56.4778 77.4197 56.5283 77.5633C56.5787 77.7069 56.5962 77.86 56.5795 78.0113C56.4895 78.59 56.3415 79.1581 56.1378 79.7072C56.8042 79.5743 57.4083 79.2257 57.8568 78.7153C58.3054 78.2049 58.5734 77.561 58.6196 76.8831C58.6196 75.563 53.79 70.7901 51.5112 70.7901V68.7592C54.5861 68.7592 60.6506 74.1504 60.6506 76.8831C60.6506 79.7783 58.0317 81.9606 54.5577 81.9606Z" fill="#003476"/>
<path d="M46.4337 81.9606C42.9597 81.9606 40.3407 79.7783 40.3407 76.8831C40.3407 74.1504 46.4052 68.7592 49.4801 68.7592V70.7901C47.2014 70.7901 42.3717 75.563 42.3717 76.8831C42.4179 77.5604 42.6857 78.2037 43.1336 78.7139C43.5815 79.224 44.1848 79.5727 44.8505 79.7062C44.6468 79.1571 44.4988 78.589 44.4088 78.0103C44.3921 77.859 44.4096 77.7059 44.46 77.5623C44.5105 77.4187 44.5926 77.2882 44.7002 77.1806L45.0272 76.8536C44.9067 76.5391 44.8477 76.2044 44.8535 75.8676C44.8535 74.8805 46.1899 73.2527 48.8251 71.0288L50.1351 72.5825C48.9027 73.5471 47.8091 74.6772 46.8855 75.9407C46.8855 75.9529 46.8855 75.9651 46.8855 75.9752C47.0291 76.0474 47.1535 76.1525 47.2486 76.2821C47.3436 76.4116 47.4065 76.5618 47.4322 76.7204C47.4579 76.879 47.4456 77.0415 47.3962 77.1944C47.3469 77.3473 47.2621 77.4863 47.1486 77.6L46.521 78.2276C46.7368 79.0173 47.017 79.7879 47.3588 80.5318C47.4276 80.6862 47.4567 80.8554 47.4436 81.0239C47.4305 81.1925 47.3755 81.3551 47.2836 81.497C47.1917 81.6389 47.0659 81.7556 46.9174 81.8366C46.769 81.9175 46.6027 81.9601 46.4337 81.9606Z" fill="#003476"/>
</svg>
