<svg width="516" height="187" viewBox="0 0 516 187" fill="none" xmlns="http://www.w3.org/2000/svg">
<g clip-path="url(#clip0_2001_8)">
<path d="M167.168 22.5573C170.927 23.0793 173.745 24.2537 175.624 26.0806C177.556 27.8553 178.521 29.9432 178.521 32.3443C178.521 35.7371 176.877 38.4513 173.589 40.487C170.352 42.5227 166.177 43.5405 161.061 43.5405C157.355 43.5405 153.806 42.9403 150.413 41.7397C147.073 40.5392 144.332 38.8689 142.192 36.7288L147.986 29.6039C149.656 31.222 151.718 32.4487 154.171 33.2838C156.677 34.0668 158.973 34.4582 161.061 34.4582C163.201 34.4582 164.819 34.119 165.916 33.4404C167.012 32.7097 167.56 31.7962 167.56 30.7001C167.56 28.1424 164.872 26.8636 159.495 26.8636H153.623V18.2511H159.495C164.872 18.2511 167.56 16.9723 167.56 14.4146C167.56 13.3185 167.012 12.4311 165.916 11.7526C164.819 11.0218 163.201 10.6564 161.061 10.6564C158.973 10.6564 156.677 11.074 154.171 11.9092C151.718 12.6921 149.656 13.9187 147.986 15.589L142.192 8.38586C144.332 6.24579 147.073 4.57548 150.413 3.37495C153.806 2.17442 157.355 1.57416 161.061 1.57416C166.177 1.57416 170.352 2.592 173.589 4.62768C176.877 6.66336 178.521 9.4037 178.521 12.8487C178.521 15.2498 177.556 17.3376 175.624 19.1123C173.745 20.887 170.927 22.0354 167.168 22.5573ZM224.224 2.35711V33.4404H229.704V54.3453H219.761V42.7576H191.026V54.3453H181.083V33.4404H185.546C187.268 31.6657 188.443 29.7083 189.069 27.5682C189.748 25.376 190.087 21.7744 190.087 16.7635V2.35711H224.224ZM196.585 33.4404H213.654V11.6743H200.03V16.7635C200.03 21.5656 199.769 25.1933 199.247 27.6465C198.726 30.0998 197.838 32.0311 196.585 33.4404ZM238.699 37.5118C234.576 33.4926 232.514 28.5078 232.514 22.5573C232.514 16.6069 234.576 11.6221 238.699 7.60291C242.823 3.58374 247.964 1.57416 254.123 1.57416C260.283 1.57416 265.424 3.58374 269.548 7.60291C273.671 11.6221 275.733 16.6069 275.733 22.5573C275.733 28.5078 273.671 33.4926 269.548 37.5118C265.424 41.5309 260.283 43.5405 254.123 43.5405C247.964 43.5405 242.823 41.5309 238.699 37.5118ZM243.475 22.5573C243.475 25.7936 244.493 28.5078 246.529 30.7001C248.564 32.8401 251.096 33.9102 254.123 33.9102C257.151 33.9102 259.682 32.8401 261.718 30.7001C263.754 28.5078 264.772 25.7936 264.772 22.5573C264.772 19.3211 263.754 16.633 261.718 14.4929C259.682 12.3528 257.151 11.2828 254.123 11.2828C251.096 11.2828 248.564 12.3789 246.529 14.5712C244.493 16.7113 243.475 19.3733 243.475 22.5573ZM308.078 1.57416C313.089 1.57416 317.239 3.58374 320.527 7.60291C323.816 11.6221 325.46 16.6069 325.46 22.5573C325.46 28.5078 323.816 33.4926 320.527 37.5118C317.239 41.5309 313.089 43.5405 308.078 43.5405C304.529 43.5405 301.449 42.4444 298.839 40.2521C296.282 38.0076 294.403 34.9802 293.202 31.1698V58.4167H282.632V2.35711H293.202V13.9448C294.403 10.1345 296.282 7.13313 298.839 4.94086C301.449 2.69639 304.529 1.57416 308.078 1.57416ZM304.242 33.9102C307.113 33.9102 309.54 32.8401 311.523 30.7001C313.507 28.5078 314.498 25.7936 314.498 22.5573C314.498 19.3733 313.507 16.7113 311.523 14.5712C309.54 12.3789 307.113 11.2828 304.242 11.2828C301.058 11.2828 298.422 12.3528 296.334 14.4929C294.246 16.633 293.202 19.3211 293.202 22.5573C293.202 25.7936 294.246 28.5078 296.334 30.7001C298.422 32.8401 301.058 33.9102 304.242 33.9102ZM336.798 37.5118C332.674 33.4926 330.613 28.5078 330.613 22.5573C330.613 16.6069 332.674 11.6221 336.798 7.60291C340.921 3.58374 346.063 1.57416 352.222 1.57416C358.381 1.57416 363.523 3.58374 367.646 7.60291C371.77 11.6221 373.832 16.6069 373.832 22.5573C373.832 28.5078 371.77 33.4926 367.646 37.5118C363.523 41.5309 358.381 43.5405 352.222 43.5405C346.063 43.5405 340.921 41.5309 336.798 37.5118ZM341.574 22.5573C341.574 25.7936 342.592 28.5078 344.627 30.7001C346.663 32.8401 349.195 33.9102 352.222 33.9102C355.25 33.9102 357.781 32.8401 359.817 30.7001C361.852 28.5078 362.87 25.7936 362.87 22.5573C362.87 19.3211 361.852 16.633 359.817 14.4929C357.781 12.3528 355.25 11.2828 352.222 11.2828C349.195 11.2828 346.663 12.3789 344.627 14.5712C342.592 16.7113 341.574 19.3733 341.574 22.5573ZM407.664 22.4007C410.901 22.8183 413.406 23.9145 415.181 25.6892C416.956 27.4639 417.843 29.7083 417.843 32.4226C417.843 35.45 416.59 37.9293 414.085 39.8606C411.579 41.7919 408.291 42.7576 404.219 42.7576H380.731V2.35711H402.34C406.412 2.35711 409.7 3.34885 412.206 5.33234C414.763 7.26363 416.042 9.74298 416.042 12.7704C416.042 15.1193 415.311 17.155 413.85 18.8775C412.388 20.5478 410.327 21.7222 407.664 22.4007ZM401.714 11.0479H390.674V18.2511H401.714C402.915 18.2511 403.88 17.9118 404.611 17.2332C405.342 16.5547 405.707 15.6673 405.707 14.5712C405.707 13.5273 405.342 12.6921 404.611 12.0657C403.88 11.3872 402.915 11.0479 401.714 11.0479ZM390.674 34.0668H403.593C404.794 34.0668 405.759 33.7275 406.49 33.0489C407.221 32.3704 407.586 31.483 407.586 30.3869C407.586 29.3429 407.195 28.5078 406.412 27.8814C405.681 27.2029 404.741 26.8636 403.593 26.8636H390.674V34.0668ZM428.397 37.5118C424.274 33.4926 422.212 28.5078 422.212 22.5573C422.212 16.6069 424.274 11.6221 428.397 7.60291C432.521 3.58374 437.662 1.57416 443.822 1.57416C449.981 1.57416 455.122 3.58374 459.246 7.60291C463.369 11.6221 465.431 16.6069 465.431 22.5573C465.431 28.5078 463.369 33.4926 459.246 37.5118C455.122 41.5309 449.981 43.5405 443.822 43.5405C437.662 43.5405 432.521 41.5309 428.397 37.5118ZM433.173 22.5573C433.173 25.7936 434.191 28.5078 436.227 30.7001C438.263 32.8401 440.794 33.9102 443.822 33.9102C446.849 33.9102 449.381 32.8401 451.416 30.7001C453.452 28.5078 454.47 25.7936 454.47 22.5573C454.47 19.3211 453.452 16.633 451.416 14.4929C449.381 12.3528 446.849 11.2828 443.822 11.2828C440.794 11.2828 438.263 12.3789 436.227 14.5712C434.191 16.7113 433.173 19.3733 433.173 22.5573ZM491.83 1.57416C498.615 1.57416 504.044 4.02741 508.115 8.93393C512.239 13.7882 513.752 19.5821 512.656 26.3155H481.495C482.225 28.7688 483.556 30.7523 485.488 32.266C487.471 33.7275 489.82 34.4582 492.534 34.4582C497.128 34.4582 500.468 32.5792 502.556 28.821L511.247 32.7357C509.42 36.0242 506.836 38.6601 503.496 40.6436C500.207 42.5749 496.449 43.5405 492.221 43.5405C486.062 43.5405 480.92 41.5309 476.797 37.5118C472.673 33.4926 470.612 28.5078 470.612 22.5573C470.612 16.6069 472.647 11.6221 476.719 7.60291C480.79 3.58374 485.827 1.57416 491.83 1.57416ZM491.83 10.6564C489.481 10.6564 487.367 11.3611 485.488 12.7704C483.661 14.1275 482.382 15.9544 481.651 18.2511H502.086C501.356 15.9544 500.077 14.1275 498.25 12.7704C496.423 11.3611 494.283 10.6564 491.83 10.6564Z" fill="#003476"/>
<path d="M170.144 72.8166C175.155 72.8166 179.304 74.8262 182.593 78.8453C185.881 82.8645 187.525 87.8493 187.525 93.7998C187.525 99.7502 185.881 104.735 182.593 108.754C179.304 112.773 175.155 114.783 170.144 114.783C166.594 114.783 163.515 113.687 160.905 111.495C158.347 109.25 156.468 106.223 155.268 102.412V129.659H144.698V73.5995H155.268V85.1873C156.468 81.3769 158.347 78.3756 160.905 76.1833C163.515 73.9388 166.594 72.8166 170.144 72.8166ZM166.307 105.153C169.178 105.153 171.605 104.083 173.589 101.942C175.572 99.7502 176.564 97.036 176.564 93.7998C176.564 90.6158 175.572 87.9537 173.589 85.8136C171.605 83.6214 169.178 82.5252 166.307 82.5252C163.123 82.5252 160.487 83.5953 158.399 85.7353C156.312 87.8754 155.268 90.5636 155.268 93.7998C155.268 97.036 156.312 99.7502 158.399 101.942C160.487 104.083 163.123 105.153 166.307 105.153ZM213.896 72.8166C220.682 72.8166 226.11 75.2698 230.182 80.1764C234.305 85.0307 235.819 90.8245 234.723 97.558H203.561C204.292 100.011 205.623 101.995 207.554 103.508C209.538 104.97 211.887 105.701 214.601 105.701C219.194 105.701 222.535 103.822 224.623 100.063L233.313 103.978C231.487 107.267 228.903 109.903 225.562 111.886C222.274 113.817 218.516 114.783 214.288 114.783C208.128 114.783 202.987 112.773 198.863 108.754C194.74 104.735 192.678 99.7502 192.678 93.7998C192.678 87.8493 194.714 82.8645 198.785 78.8453C202.857 74.8262 207.894 72.8166 213.896 72.8166ZM213.896 81.8989C211.547 81.8989 209.433 82.6035 207.554 84.0128C205.727 85.37 204.449 87.1969 203.718 89.4935H224.153C223.422 87.1969 222.143 85.37 220.316 84.0128C218.49 82.6035 216.349 81.8989 213.896 81.8989ZM297.387 114H242.032V73.5995H252.602V104.683H264.424V73.5995H274.994V104.683H286.817V73.5995H297.387V114ZM325.528 72.8166C332.314 72.8166 337.742 75.2698 341.814 80.1764C345.937 85.0307 347.451 90.8245 346.355 97.558H315.193C315.924 100.011 317.255 101.995 319.186 103.508C321.17 104.97 323.519 105.701 326.233 105.701C330.826 105.701 334.167 103.822 336.255 100.063L344.946 103.978C343.119 107.267 340.535 109.903 337.194 111.886C333.906 113.817 330.148 114.783 325.92 114.783C319.761 114.783 314.619 112.773 310.496 108.754C306.372 104.735 304.31 99.7502 304.31 93.7998C304.31 87.8493 306.346 82.8645 310.417 78.8453C314.489 74.8262 319.526 72.8166 325.528 72.8166ZM325.528 81.8989C323.18 81.8989 321.066 82.6035 319.186 84.0128C317.36 85.37 316.081 87.1969 315.35 89.4935H335.785C335.054 87.1969 333.776 85.37 331.949 84.0128C330.122 82.6035 327.982 81.8989 325.528 81.8989ZM364.234 114H353.664V73.5995H364.234V89.1803H382.555V73.5995H393.125V114H382.555V98.4192H364.234V114ZM411.625 111.964L422.586 73.5995H441.768V114H431.825V75.9484L420.863 114H401.681V73.5995H411.625V111.964ZM469.886 72.8166C476.671 72.8166 482.1 75.2698 486.171 80.1764C490.295 85.0307 491.808 90.8245 490.712 97.558H459.551C460.281 100.011 461.612 101.995 463.544 103.508C465.527 104.97 467.876 105.701 470.59 105.701C475.184 105.701 478.524 103.822 480.612 100.063L489.303 103.978C487.476 107.267 484.892 109.903 481.552 111.886C478.263 113.817 474.505 114.783 470.277 114.783C464.118 114.783 458.976 112.773 454.853 108.754C450.729 104.735 448.668 99.7502 448.668 93.7998C448.668 87.8493 450.703 82.8645 454.775 78.8453C458.846 74.8262 463.883 72.8166 469.886 72.8166ZM469.886 81.8989C467.537 81.8989 465.423 82.6035 463.544 84.0128C461.717 85.37 460.438 87.1969 459.707 89.4935H480.142C479.412 87.1969 478.133 85.37 476.306 84.0128C474.479 82.6035 472.339 81.8989 469.886 81.8989Z" fill="#52719A"/>
<path d="M121.291 78.9592C121.291 79.3267 121.249 79.693 121.167 80.0512C121.249 81.2806 121.291 82.5511 121.291 83.8629C121.291 117.231 60.8692 136.022 60.8692 136.022C60.8692 136.022 0.447754 117.231 0.447754 83.8526C0.447754 82.5477 0.488962 81.2771 0.571379 80.0409C0.489892 79.6861 0.448425 79.3232 0.447754 78.9592V4.89786C0.450476 3.60087 0.96691 2.35778 1.88402 1.44067C2.80114 0.523552 4.04423 0.00711645 5.34122 0.00439453H116.397C117.694 0.00711645 118.937 0.523552 119.854 1.44067C120.771 2.35778 121.288 3.60087 121.291 4.89786V78.9592ZM97.6886 52.6478C97.6859 51.3508 97.1695 50.1077 96.2524 49.1906C95.3353 48.2735 94.0922 47.757 92.7952 47.7543H73.3243V28.2835C73.3189 26.9901 72.8027 25.7511 71.8881 24.8366C70.9735 23.922 69.7346 23.4057 68.4412 23.4003H53.2972C52.0002 23.403 50.7571 23.9195 49.84 24.8366C48.9229 25.7537 48.4064 26.9968 48.4037 28.2938V47.7543H28.9432C27.6462 47.757 26.4031 48.2735 25.486 49.1906C24.5689 50.1077 24.0524 51.3508 24.0497 52.6478V67.7918C24.0552 69.087 24.5728 70.3274 25.4896 71.2423C26.4064 72.1572 27.648 72.6722 28.9432 72.6749H48.414V92.1355C48.4167 93.4307 48.9318 94.6722 49.8466 95.589C50.7615 96.5059 52.002 97.0235 53.2972 97.0289H68.4412C69.7382 97.0262 70.9813 96.5098 71.8984 95.5927C72.8155 94.6756 73.3319 93.4325 73.3346 92.1355V72.6749H92.7952C94.0922 72.6722 95.3353 72.1558 96.2524 71.2387C97.1695 70.3215 97.6859 69.0785 97.6886 67.7815V52.6478Z" fill="#EF5247"/>
<path d="M7.47178 174.788H3.92239V145.558H7.51354L18.4958 160.549L29.0187 145.558H32.4011V174.788H28.8517V151.153L18.4958 165.685H17.9529L7.47178 151.278V174.788ZM55.9044 170.111L56.9483 172.742C55.1388 174.384 52.7865 175.205 49.8913 175.205C46.8291 175.205 44.3932 174.315 42.5837 172.533C40.7464 170.751 39.8277 168.371 39.8277 165.392C39.8277 162.581 40.6907 160.242 42.4167 158.377C44.1148 156.512 46.4811 155.579 49.5155 155.579C52.0209 155.579 54.0949 156.387 55.7373 158.001C57.4077 159.588 58.2428 161.648 58.2428 164.181C58.2428 164.989 58.1732 165.74 58.034 166.436H43.5859C43.7251 168.19 44.3793 169.568 45.5485 170.57C46.7455 171.573 48.2767 172.074 50.1418 172.074C52.5916 172.074 54.5125 171.419 55.9044 170.111ZM49.3484 158.711C47.706 158.711 46.3419 159.171 45.2562 160.089C44.1983 161.008 43.572 162.219 43.3771 163.722H54.7769C54.6934 162.163 54.1645 160.938 53.1901 160.047C52.2436 159.157 50.9631 158.711 49.3484 158.711ZM63.8886 179.381H60.7567V171.656H63.0952C63.7911 170.793 64.4036 169.401 64.9325 167.48C65.4614 165.532 65.8094 163.36 65.9764 160.966L66.2687 155.997H79.0883V171.656H82.2201V179.381H79.0883V174.788H63.8886V179.381ZM69.4006 159.129L69.1918 162.261C69.0247 164.348 68.6907 166.255 68.1896 167.981C67.6885 169.707 67.1735 170.932 66.6446 171.656H75.7477V159.129H69.4006ZM101.358 160.799L90.5012 174.788H87.1606V155.997H90.5012V169.986L101.358 155.997H104.699V174.788H101.358V160.799ZM128.78 174.788H112.076V155.997H115.417V171.656H125.439V155.997H128.78V171.656H131.911V179.381H128.78V174.788ZM151.027 160.799L140.17 174.788H136.829V155.997H140.17V169.986L151.027 155.997H154.367V174.788H151.027V160.799ZM178.866 174.788H175.525V166.854H165.086V174.788H161.745V155.997H165.086V163.722H175.525V155.997H178.866V174.788ZM200.661 169.652L202.247 172.074C200.633 174.161 198.225 175.205 195.023 175.205C192.017 175.205 189.581 174.315 187.716 172.533C185.878 170.751 184.96 168.371 184.96 165.392C184.96 162.636 185.865 160.312 187.674 158.419C189.484 156.526 191.752 155.579 194.48 155.579C197.765 155.579 200.229 156.401 201.872 158.043L200.327 160.674C198.879 159.365 197.083 158.711 194.94 158.711C193.186 158.711 191.669 159.351 190.388 160.632C189.136 161.885 188.509 163.472 188.509 165.392C188.509 167.425 189.149 169.039 190.43 170.236C191.738 171.461 193.353 172.074 195.274 172.074C197.445 172.074 199.241 171.266 200.661 169.652ZM219.975 155.997H224.359L216.133 164.975L225.153 174.788H220.518L212.041 165.184L219.975 155.997ZM211.247 174.788H207.907V155.997H211.247V174.788ZM244.207 160.799L233.35 174.788H230.009V155.997H233.35V169.986L244.207 155.997H247.547V174.788H244.207V160.799ZM269.122 160.799L258.266 174.788H254.925V155.997H258.266V169.986L269.122 155.997H272.463V174.788H269.122V160.799ZM257.597 146.393H260.729C260.896 148.592 261.968 149.692 263.945 149.692C265.81 149.692 266.826 148.592 266.993 146.393H270.125C270.125 148.091 269.54 149.497 268.371 150.61C267.229 151.696 265.754 152.239 263.945 152.239C261.968 152.239 260.409 151.71 259.268 150.652C258.154 149.566 257.597 148.147 257.597 146.393ZM293.865 174.788H290.525V155.997H293.573L300.797 165.309L307.645 155.997H310.61V174.788H307.27V161.091L300.755 169.819H300.63L293.865 161.091V174.788ZM318.971 159.964L318.094 157.291C319.96 156.15 322.047 155.579 324.358 155.579C326.891 155.579 328.729 156.206 329.87 157.458C331.011 158.711 331.582 160.646 331.582 163.263V174.788H328.408V172.366C326.933 174.175 324.929 175.08 322.395 175.08C320.669 175.08 319.277 174.565 318.22 173.535C317.162 172.477 316.633 171.057 316.633 169.276C316.633 167.439 317.287 165.991 318.595 164.933C319.904 163.847 321.616 163.305 323.732 163.305C325.708 163.305 327.267 163.708 328.408 164.515C328.408 162.4 328.116 160.883 327.532 159.964C326.947 159.045 325.819 158.586 324.149 158.586C322.451 158.586 320.725 159.045 318.971 159.964ZM323.565 172.074C325.43 172.074 327.044 171.266 328.408 169.652V167.271C327.239 166.436 325.833 166.019 324.191 166.019C323.05 166.019 322.089 166.297 321.31 166.854C320.558 167.383 320.182 168.134 320.182 169.109C320.182 170.027 320.475 170.751 321.059 171.28C321.672 171.809 322.507 172.074 323.565 172.074ZM341.821 183.139H338.481V155.997H341.821V158.21C342.49 157.431 343.408 156.804 344.577 156.331C345.747 155.83 346.958 155.579 348.21 155.579C350.883 155.579 352.985 156.47 354.516 158.252C356.103 160.006 356.896 162.288 356.896 165.1C356.896 167.967 355.991 170.375 354.182 172.324C352.4 174.245 350.048 175.205 347.125 175.205C344.87 175.205 343.102 174.774 341.821 173.911V183.139ZM347.25 158.711C345.023 158.711 343.213 159.574 341.821 161.3V170.612C343.297 171.586 344.967 172.074 346.832 172.074C348.809 172.074 350.382 171.447 351.551 170.195C352.748 168.914 353.347 167.258 353.347 165.225C353.347 163.249 352.804 161.676 351.718 160.507C350.632 159.31 349.143 158.711 347.25 158.711ZM375.057 155.997H379.441L371.215 164.975L380.235 174.788H375.6L367.123 165.184L375.057 155.997ZM366.33 174.788H362.989V155.997H366.33V174.788ZM398.896 170.111L399.94 172.742C398.13 174.384 395.778 175.205 392.882 175.205C389.82 175.205 387.384 174.315 385.575 172.533C383.738 170.751 382.819 168.371 382.819 165.392C382.819 162.581 383.682 160.242 385.408 158.377C387.106 156.512 389.472 155.579 392.507 155.579C395.012 155.579 397.086 156.387 398.729 158.001C400.399 159.588 401.234 161.648 401.234 164.181C401.234 164.989 401.164 165.74 401.025 166.436H386.577C386.716 168.19 387.37 169.568 388.54 170.57C389.737 171.573 391.268 172.074 393.133 172.074C395.583 172.074 397.504 171.419 398.896 170.111ZM392.34 158.711C390.697 158.711 389.333 159.171 388.247 160.089C387.19 161.008 386.563 162.219 386.368 163.722H397.768C397.685 162.163 397.156 160.938 396.181 160.047C395.235 159.157 393.954 158.711 392.34 158.711ZM411.214 159.338H404.324V155.997H421.444V159.338H414.554V174.788H411.214V159.338ZM440.598 160.799L429.741 174.788H426.4V155.997H429.741V169.986L440.598 155.997H443.938V174.788H440.598V160.799ZM468.437 174.788H465.096V166.854H454.657V174.788H451.316V155.997H454.657V163.722H465.096V155.997H468.437V174.788ZM479.124 174.788H475.783V155.997H487.684V159.129H479.124V174.788Z" fill="#546E7A"/>
</g>
<defs>
<clipPath id="clip0_2001_8">
<rect width="516" height="187" fill="white"/>
</clipPath>
</defs>
</svg>
