<svg width="100" height="100" viewBox="0 0 100 100" fill="none" xmlns="http://www.w3.org/2000/svg">
<circle cx="50" cy="50" r="50" fill="white"/>
<path d="M24 54.0909V47C24 32.5818 35.5818 21 50 21C64.4182 21 76 32.5818 76 47V54.0909" stroke="#003476" stroke-width="4" stroke-miterlimit="10" stroke-linejoin="round"/>
<path d="M76 54.0909C76 67.0909 66.5455 77.9637 54.0182 79.8546C51.8909 80.0909 50 78.4364 50 76.3091C50 74.4182 51.4182 73 53.3091 73C55.4364 73 57.0909 74.6546 57.0909 76.7819V77.7273" stroke="#003476" stroke-width="4" stroke-miterlimit="10" stroke-linejoin="round"/>
<path d="M33.4545 44.6364C28.2545 44.6364 24 48.8909 24 54.0909C24 59.2909 28.2545 63.5454 33.4545 63.5454V44.6364Z" stroke="#003476" stroke-width="4" stroke-miterlimit="10" stroke-linejoin="round"/>
<path d="M66.5454 63.5454C71.7454 63.5454 76 59.2909 76 54.0909C76 48.8909 71.7454 44.6364 66.5454 44.6364V63.5454Z" stroke="#003476" stroke-width="4" stroke-miterlimit="10" stroke-linejoin="round"/>
</svg>
